<svg data-v-423bf9ae="" xmlns="http://www.w3.org/2000/svg" viewBox="0 0 367.5397332411954 60" class="font"><!----><!----><defs data-v-423bf9ae=""><linearGradient data-v-423bf9ae="" gradientTransform="rotate(25)" id="a116e897-c039-4420-a3a9-959ebaa98c38" x1="0%" y1="0%" x2="100%" y2="0%"><stop data-v-423bf9ae="" offset="0%" style="stop-color: rgb(40, 139, 88); stop-opacity: 1;"></stop><stop data-v-423bf9ae="" offset="100%" style="stop-color: rgb(21, 34, 241); stop-opacity: 1;"></stop></linearGradient></defs><g data-v-423bf9ae="" id="1fb4a235-1012-4915-ac9f-0bc546a599e1" fill="url(#a116e897-c039-4420-a3a9-959ebaa98c38)" transform="matrix(4.542013612924749,0,0,4.542013612924749,-4.723694615090295,-16.80545082282024)"><path d="M1.04 14.08L3.46 14.08L3.46 12.03L4.27 11.17L5.91 14.08L8.78 14.08L5.92 9.44L8.69 6.54L5.95 6.54L3.46 9.18L3.46 3.70L1.04 3.70ZM8.92 6.29L11.84 6.29L11.84 14.08L14.34 14.08L14.34 6.29L17.29 6.29L17.29 4.27L8.92 4.27ZM17.71 10.33C17.71 12.63 19.25 14.17 21.71 14.17C23.10 14.17 24.23 13.68 25.00 12.84L23.73 11.59C23.23 12.10 22.58 12.36 21.92 12.36C21.03 12.36 20.38 11.86 20.15 10.96L25.45 10.96C25.62 8.20 24.30 6.45 21.64 6.45C19.31 6.45 17.71 7.99 17.71 10.33ZM20.10 9.66C20.26 8.75 20.83 8.13 21.67 8.13C22.54 8.13 23.13 8.74 23.13 9.66ZM26.84 14.08L29.26 14.08L29.26 3.70L26.84 3.70ZM30.63 10.33C30.63 12.63 32.17 14.17 34.64 14.17C36.02 14.17 37.16 13.68 37.93 12.84L36.65 11.59C36.15 12.10 35.50 12.36 34.85 12.36C33.95 12.36 33.31 11.86 33.07 10.96L38.37 10.96C38.54 8.20 37.23 6.45 34.57 6.45C32.23 6.45 30.63 7.99 30.63 10.33ZM33.03 9.66C33.18 8.75 33.75 8.13 34.59 8.13C35.46 8.13 36.05 8.74 36.05 9.66ZM39.69 14.08L42.10 14.08L42.10 10.35C42.10 9.32 42.67 8.58 43.60 8.55C44.39 8.55 44.88 9.10 44.88 10.00L44.88 14.08L47.31 14.08L47.31 10.35C47.31 9.32 47.87 8.58 48.78 8.55C49.57 8.55 50.08 9.10 50.08 10.00L50.08 14.08L52.49 14.08L52.49 9.32C52.49 7.56 51.42 6.43 49.77 6.43C48.52 6.44 47.60 7.01 47.11 8.13C46.73 7.07 45.82 6.43 44.59 6.43C43.48 6.44 42.62 6.89 42.10 7.78L42.10 6.54L39.69 6.54ZM53.58 10.33C53.58 12.63 55.12 14.17 57.58 14.17C58.97 14.17 60.10 13.68 60.87 12.84L59.60 11.59C59.09 12.10 58.45 12.36 57.79 12.36C56.90 12.36 56.25 11.86 56.01 10.96L61.32 10.96C61.49 8.20 60.17 6.45 57.51 6.45C55.17 6.45 53.58 7.99 53.58 10.33ZM55.97 9.66C56.13 8.75 56.70 8.13 57.54 8.13C58.41 8.13 59.00 8.74 59.00 9.66ZM61.94 8.47L62.99 8.47L62.99 11.80C62.99 13.37 64.04 14.20 65.49 14.20C66.22 14.20 66.96 14 67.51 13.68L67.03 12.00C66.67 12.15 66.35 12.25 66.09 12.25C65.65 12.26 65.39 12.01 65.39 11.42L65.39 8.47L67.37 8.47L67.37 6.87L65.39 6.87L65.39 4.79L62.99 4.79L62.99 6.89L61.94 6.89ZM68.73 14.08L71.15 14.08L71.15 10.21C71.27 9.14 72.20 8.48 73.60 8.61L73.60 6.43C72.52 6.44 71.67 6.93 71.15 7.81L71.15 6.54L68.73 6.54ZM73.57 6.54L76.71 13.92L76.52 14.29C76.33 14.70 76.02 14.90 75.59 14.90C75.24 14.90 74.94 14.77 74.59 14.49L73.58 16.14C74.26 16.66 74.94 16.91 75.78 16.91C77.18 16.91 78.13 16.24 78.69 14.87L81.96 6.54L79.55 6.54L77.91 11.55L76.06 6.54Z"></path></g><!----><!----></svg>