<svg data-v-423bf9ae="" xmlns="http://www.w3.org/2000/svg" viewBox="0 0 320.3428649902344 60" class="font"><!----><!----><!----><g data-v-423bf9ae="" id="19de638b-5c07-4172-9540-be283002768d" fill="white" transform="matrix(5.714285714285714,0,0,5.714285714285714,-1.0285774895123154,0)"><path d="M2.03 10.50L3.30 10.50L3.30 1.15L5.17 1.15L5.17 0L0.18 0L0.18 1.15L2.03 1.15ZM7.80 4.68L7.80 1.29L10.82 1.29L10.82 0.01C9.13 0.01 8.22 0.01 6.52 0.01L6.52 10.50L11.02 10.50L11.02 9.23L7.80 9.23L7.80 5.95L10.33 5.95L10.33 4.68ZM12.24 0.01L12.24 10.50L16.67 10.50L16.67 9.28L13.51 9.28L13.51 0.01ZM19.29 4.68L19.29 1.29L22.32 1.29L22.32 0.01C20.62 0.01 19.71 0.01 18.02 0.01L18.02 10.50L22.51 10.50L22.51 9.23L19.29 9.23L19.29 5.95L21.83 5.95L21.83 4.68ZM29.71 10.49L30.98 10.49L30.98 0.01L28.48 0.01L27.87 4.17L27.50 7.77L27.45 7.77L27.06 4.12L26.46 0.01C25.33 0.01 25.09 0.01 23.95 0.01L23.95 10.49L25.23 10.49L25.23 1.26L25.38 1.26L26.66 9.60L28.28 9.60L29.55 1.26L29.71 1.26ZM34.26 4.68L34.26 1.29L37.28 1.29L37.28 0.01C35.59 0.01 34.68 0.01 32.98 0.01L32.98 10.50L37.48 10.50L37.48 9.23L34.26 9.23L34.26 5.95L36.79 5.95L36.79 4.68ZM39.93 10.50L41.20 10.50L41.20 1.15L43.06 1.15L43.06 0L38.08 0L38.08 1.15L39.93 1.15ZM45.68 1.30L46.97 1.30L47.82 2.16L47.82 4.76L46.96 5.70L45.68 5.70ZM45.68 6.97L46.79 6.97L48.43 10.50L49.83 10.50L47.96 6.48L49.10 5.26L49.10 1.64L47.49 0.01L44.41 0.01L44.41 10.50L45.68 10.50ZM53.83 6.61L56.24 0L54.89 0L54.04 2.39L53.20 5.12L52.37 2.44L51.52 0L50.15 0L52.56 6.61L52.56 10.50L53.83 10.50Z"></path></g><!----><!----></svg>